<svg width="92" height="73" viewBox="0 0 92 73" fill="none" xmlns="http://www.w3.org/2000/svg">
<g opacity="0.2">
<path d="M8.33333 66.6667C6.04167 66.6667 4.07986 65.8507 2.44792 64.2188C0.815972 62.5868 0 60.625 0 58.3333V12.5H8.33333V58.3333H79.1667V66.6667H8.33333ZM25 50C22.7083 50 20.7465 49.184 19.1146 47.5521C17.4826 45.9201 16.6667 43.9583 16.6667 41.6667V8.33333C16.6667 6.04167 17.4826 4.07986 19.1146 2.44792C20.7465 0.815972 22.7083 0 25 0H83.3333C85.625 0 87.5868 0.815972 89.2188 2.44792C90.8507 4.07986 91.6667 6.04167 91.6667 8.33333V41.6667C91.6667 43.9583 90.8507 45.9201 89.2188 47.5521C87.5868 49.184 85.625 50 83.3333 50H25ZM33.3333 41.6667C33.3333 39.375 32.5174 37.4132 30.8854 35.7812C29.2535 34.1493 27.2917 33.3333 25 33.3333V41.6667H33.3333ZM75 41.6667H83.3333V33.3333C81.0417 33.3333 79.0799 34.1493 77.4479 35.7812C75.816 37.4132 75 39.375 75 41.6667ZM54.1667 37.5C57.6389 37.5 60.5903 36.2847 63.0208 33.8542C65.4514 31.4236 66.6667 28.4722 66.6667 25C66.6667 21.5278 65.4514 18.5764 63.0208 16.1458C60.5903 13.7153 57.6389 12.5 54.1667 12.5C50.6944 12.5 47.7431 13.7153 45.3125 16.1458C42.8819 18.5764 41.6667 21.5278 41.6667 25C41.6667 28.4722 42.8819 31.4236 45.3125 33.8542C47.7431 36.2847 50.6944 37.5 54.1667 37.5ZM25 16.6667C27.2917 16.6667 29.2535 15.8507 30.8854 14.2188C32.5174 12.5868 33.3333 10.625 33.3333 8.33333H25V16.6667ZM83.3333 16.6667V8.33333H75C75 10.625 75.816 12.5868 77.4479 14.2188C79.0799 15.8507 81.0417 16.6667 83.3333 16.6667Z" fill="#46645F"/>
</g>
</svg>
