<svg width="89" height="95" viewBox="0 0 89 95" fill="none" xmlns="http://www.w3.org/2000/svg">
<path d="M70 45C71.4167 45 72.6042 44.5208 73.5625 43.5625C74.5208 42.6042 75 41.4167 75 40C75 38.5833 74.5208 37.3958 73.5625 36.4375C72.6042 35.4792 71.4167 35 70 35C68.5833 35 67.3958 35.4792 66.4375 36.4375C65.4792 37.3958 65 38.5833 65 40C65 41.4167 65.4792 42.6042 66.4375 43.5625C67.3958 44.5208 68.5833 45 70 45ZM30 35H55V25H30V35ZM12.5 95C9.66667 85.5 6.875 76.0208 4.125 66.5625C1.375 57.1042 0 47.4167 0 37.5C0 29.8333 2.66667 23.3333 8 18C13.3333 12.6667 19.8333 10 27.5 10H52.5C54.9167 6.83333 57.8542 4.375 61.3125 2.625C64.7708 0.875 68.5 0 72.5 0C74.5833 0 76.3542 0.729167 77.8125 2.1875C79.2708 3.64583 80 5.41667 80 7.5C80 7.91667 79.7917 8.875 79.375 10.375C79.0417 11.2917 78.7292 12.2292 78.4375 13.1875C78.1458 14.1458 77.9167 15.125 77.75 16.125L89.125 27.5H100V62.375L85.875 67L77.5 95H50V85H40V95H12.5Z" fill="#715767"/>
</svg>
